<svg width="24" height="24" viewBox="0 0 24 24" fill="none" xmlns="http://www.w3.org/2000/svg">
<path d="M12 0C9.62663 0 7.30655 0.703788 5.33316 2.02236C3.35977 3.34094 1.8217 5.21508 0.913451 7.4078C0.00519943 9.60051 -0.232441 12.0133 0.230582 14.3411C0.693605 16.6689 1.83649 18.807 3.51472 20.4853C5.19295 22.1635 7.33115 23.3064 9.65892 23.7694C11.9867 24.2324 14.3995 23.9948 16.5922 23.0865C18.7849 22.1783 20.6591 20.6402 21.9776 18.6668C23.2962 16.6934 24 14.3734 24 12C24 8.8174 22.7357 5.76515 20.4853 3.51472C18.2348 1.26428 15.1826 0 12 0V0ZM19.3761 17.1235H17.6316C16.9711 17.1235 16.7678 16.5984 15.5822 15.3959C14.549 14.3966 14.0917 14.2611 13.8377 14.2611C13.482 14.2611 13.3804 14.3627 13.3804 14.8539V16.4291C13.3804 16.8525 13.2449 17.1066 12.127 17.1066C10.2809 17.1066 8.23148 15.9887 6.79182 13.9054C4.62386 10.8567 4.03106 8.57022 4.03106 8.09598C4.03106 7.84192 4.13268 7.6048 4.62386 7.6048H6.36839C6.80875 7.6048 6.97813 7.80804 7.1475 8.28228C8.0113 10.7721 9.45096 12.9569 10.0438 12.9569C10.2639 12.9569 10.3656 12.8553 10.3656 12.2964V9.72195C10.2978 8.53634 9.67114 8.43472 9.67114 8.01129C9.67287 7.95553 9.6857 7.90067 9.70886 7.84991C9.73203 7.79916 9.76508 7.75353 9.80607 7.71569C9.84707 7.67785 9.89519 7.64855 9.94763 7.62951C10.0001 7.61047 10.0558 7.60207 10.1115 7.6048H12.8553C13.2279 7.6048 13.3634 7.80804 13.3634 8.24841V11.7205C13.3634 12.0932 13.5328 12.2286 13.6344 12.2286C13.8546 12.2286 14.0409 12.0932 14.4474 11.6867C15.7008 10.2809 16.5984 8.11291 16.5984 8.11291C16.6575 7.96114 16.763 7.83192 16.8999 7.7437C17.0368 7.65549 17.198 7.6128 17.3606 7.62173H19.1052C19.6302 7.62173 19.7488 7.89273 19.6302 8.26535C19.41 9.28158 17.2759 12.2964 17.2759 12.2964C17.0896 12.6013 17.0219 12.7368 17.2759 13.0755C17.4622 13.3296 18.072 13.8546 18.4785 14.3289C19.2237 15.1757 19.7996 15.8871 19.952 16.3783C20.1044 16.8694 19.8673 17.1235 19.3761 17.1235Z" fill="white"/>
</svg>
