<svg width="80" height="80" viewBox="0 0 80 80" fill="none" xmlns="http://www.w3.org/2000/svg">
<circle cx="40" cy="40" r="39" stroke="#5C5A6A" stroke-width="2"/>
<path fill-rule="evenodd" clip-rule="evenodd" d="M47 32C47 35.866 43.866 39 40 39C36.134 39 33 35.866 33 32C33 28.134 36.134 25 40 25C43.866 25 47 28.134 47 32ZM52 32C52 38.6274 46.6274 44 40 44C33.3726 44 28 38.6274 28 32C28 25.3726 33.3726 20 40 20C46.6274 20 52 25.3726 52 32ZM29.2678 59.2678C35.2914 53.2441 44.7085 53.2441 50.7322 59.2678C51.7085 60.2441 53.2915 60.2441 54.2678 59.2678C55.2441 58.2915 55.2441 56.7085 54.2678 55.7322C46.2915 47.756 33.7085 47.7559 25.7322 55.7322C24.7559 56.7086 24.7559 58.2915 25.7322 59.2678C26.7086 60.2441 28.2915 60.2441 29.2678 59.2678Z" fill="white"/>
</svg>
