<svg width="128" height="20" viewBox="0 0 146 24" fill="none" xmlns="http://www.w3.org/2000/svg">
<path fill-rule="evenodd" clip-rule="evenodd" d="M0 6.6719L5.27158 3.35822L0 0V6.6719ZM29.0273 24L34.2989 20.4872L34.3041 11.5128L29.0273 8.00002V24ZM34.2989 3.35822L29.0273 6.6719V0L34.2989 3.35822ZM20.5782 9.06617L17.1442 16.3196L13.718 9.06617H7.91504L14.3348 22.8789H19.9562L26.3837 9.06617H20.5782ZM5.27676 20.4872L0 24V8.00002L5.27676 11.5101V20.4872ZM132.188 19.5389C133.163 21.8232 135.809 23.3268 139.306 23.3268L139.308 23.3163C143.284 23.3163 146 21.2338 146 18.1978C146 14.6255 142.335 13.7513 139.789 13.1439L139.759 13.1368L139.752 13.1351C138.41 12.8164 137.395 12.5753 137.395 12.0524C137.395 11.5914 137.963 11.3451 138.982 11.3451C140.684 11.3451 141.669 12.0498 141.981 12.5737L145.888 10.7924C144.968 8.73867 142.449 7.30848 139.025 7.30848C135.234 7.30848 132.588 9.23115 132.588 12.0943C132.588 15.7957 136.139 16.647 138.686 17.226C140.089 17.5429 141.177 17.8048 141.177 18.4257C141.177 18.947 140.749 19.2639 139.363 19.2639C137.637 19.2639 136.504 18.5331 136.107 17.7472L132.188 19.5389ZM126.826 23.3163C123.669 23.3163 121.705 21.3202 121.705 18.169V11.8821H119.186V7.64112H121.705V3.91094H126.735V7.64112H130.118V11.8926H126.735V17.2888C126.735 18.1271 127.174 18.5986 127.966 18.5986C128.493 18.6232 129.014 18.4762 129.452 18.1795L130.882 22.1558C130.203 22.7348 128.886 23.3268 126.821 23.3268L126.826 23.3163ZM107.266 9.25996V7.64112H102.244V22.9653H107.274V14.8264C107.274 13.1054 108.378 11.9921 109.907 11.9921C111.286 11.9921 111.98 12.9037 111.98 14.2476V22.9653H117.003V13.2495C117.003 9.46169 114.995 7.27961 111.625 7.27961C110.799 7.25753 109.977 7.42409 109.222 7.76695C108.468 8.10981 107.799 8.62012 107.266 9.25996ZM94.6294 13.928C94.3466 12.4401 93.2582 11.5992 91.9415 11.5992C91.245 11.5812 90.5628 11.8013 90.0053 12.224C89.4485 12.6466 89.0485 13.247 88.8706 13.928H94.6294ZM83.959 15.3032C83.959 19.9214 87.3155 23.3268 91.9137 23.3268L91.9109 23.3242C95.3683 23.3242 98.0534 21.6189 99.2556 19.2325L95.3083 17.3988C94.958 17.9093 94.4877 18.3236 93.9391 18.604C93.3905 18.8844 92.7819 19.0221 92.1672 19.0046C90.4566 19.0046 89.2516 18.0354 88.8421 16.5317H99.5794V15.3032C99.5794 10.6326 96.3449 7.27961 91.9395 7.27961C87.3127 7.27961 83.959 10.685 83.959 15.3032ZM81.2168 1.91748V22.9653H76.1968V5.17092L81.2168 1.91748ZM67.8306 17.2574C67.8306 18.187 66.7246 19.4963 65.1702 19.4971C64.2638 19.4966 63.6709 18.9936 63.6709 18.038C63.6709 17.0818 64.4069 16.317 65.7935 16.317C66.4869 16.3029 67.177 16.4156 67.8306 16.6496V17.2574ZM63.6139 23.3294C60.6427 23.3281 58.6509 21.3324 58.6509 18.4571C58.6509 15.4211 61.0145 13.4984 64.4097 13.4984C65.5738 13.4805 66.7322 13.6667 67.8334 14.0484V13.5848C67.8334 12.4139 67.1258 11.6045 65.5267 11.6045C65.0568 11.5888 64.5898 11.684 64.1624 11.8821C63.7351 12.0804 63.3593 12.3763 63.0646 12.7465L58.9334 10.8239C60.066 8.9902 62.1445 7.28229 65.7393 7.28229C70.4225 7.28229 72.8562 9.76821 72.8562 13.7577V22.9653H67.8282V21.2181C67.0225 22.4749 65.352 23.3286 63.6139 23.3294ZM47.3431 18.1821C47.3431 21.3333 49.3103 23.3294 52.467 23.3294L52.4799 23.3268C54.5455 23.3268 55.8622 22.7348 56.5411 22.1558L55.1105 18.1795C54.6728 18.4764 54.1522 18.6233 53.6255 18.5986C52.8324 18.5986 52.3944 18.1271 52.3944 17.2888V11.8926H55.7637V7.64112H52.3944V3.91094H47.3561V7.64112H44.8369V11.8952H47.3431V18.1821Z" fill="white"/>
</svg>
