<svg xmlns="http://www.w3.org/2000/svg" xmlns:xlink="http://www.w3.org/1999/xlink"><symbol id="icon-fb" viewBox="0 0 24 24">
<path d="M24 12C24 5.37258 18.6274 0 12 0C5.37258 0 0 5.37258 0 12C0 17.9894 4.3882 22.954 10.125 23.8542V15.4687H7.07812V12H10.125V9.35625C10.125 6.34875 11.9166 4.6875 14.6576 4.6875C15.9701 4.6875 17.3438 4.92187 17.3438 4.92187V7.875H15.8306C14.34 7.875 13.875 8.80008 13.875 9.75V12H17.2031L16.6711 15.4687H13.875V23.8542C19.6118 22.954 24 17.9894 24 12Z" fill="white"/>
</symbol><symbol id="icon-instagram" viewBox="0 0 24 24">
<path fill-rule="evenodd" clip-rule="evenodd" d="M0 12C0 5.37268 5.37269 0 12 0C18.6273 0 24 5.37268 24 12C24 18.6273 18.6273 24 12 24C5.37269 24 0 18.6273 0 12ZM18.513 16.5028C18.683 16.0657 18.7992 15.5658 18.8325 14.8342C18.8661 14.1011 18.874 13.8669 18.874 12C18.874 10.1331 18.8658 9.89734 18.8325 9.16577C18.7992 8.4342 18.683 7.93384 18.513 7.49719C18.3364 7.04053 18.0663 6.62585 17.7201 6.27966C17.3739 5.93347 16.9592 5.66333 16.5025 5.48669C16.0654 5.31677 15.5671 5.20081 14.834 5.16724C14.1008 5.13367 13.8667 5.12573 11.9997 5.12573C10.1328 5.12573 9.89704 5.13391 9.16549 5.16724C8.43394 5.20056 7.93351 5.31677 7.49693 5.48669C7.04028 5.66333 6.62556 5.93347 6.27935 6.27966C5.93314 6.62585 5.66308 7.04053 5.48647 7.49719C5.31648 7.93433 5.20051 8.43262 5.16695 9.16577C5.13339 9.89893 5.12547 10.1331 5.12547 12C5.12547 13.8669 5.13366 14.1027 5.16695 14.8342C5.20024 15.5658 5.31648 16.0662 5.48647 16.5028C5.66308 16.9595 5.93314 17.3741 6.27935 17.7203C6.62556 18.0665 7.04028 18.3367 7.49693 18.5133C7.93406 18.6832 8.43231 18.7992 9.16549 18.8328C9.89868 18.8663 10.1328 18.8743 11.9997 18.8743C13.8667 18.8743 14.1024 18.8661 14.834 18.8328C15.5655 18.7994 16.0659 18.6832 16.5025 18.5133C16.9592 18.3367 17.3739 18.0665 17.7201 17.7203C18.0663 17.3741 18.3364 16.9595 18.513 16.5028ZM17.3587 7.9458C17.2444 7.64929 17.0692 7.38013 16.8445 7.1554C16.6198 6.93066 16.3506 6.75549 16.0542 6.64124C15.8119 6.547 15.4479 6.43518 14.7777 6.40466C14.053 6.37158 13.8355 6.3645 12 6.3645C10.1644 6.3645 9.9472 6.37158 9.2222 6.40466C8.55205 6.43518 8.18805 6.547 7.94575 6.64124C7.6493 6.75549 7.38007 6.93066 7.15539 7.1554C6.93071 7.38013 6.75555 7.64929 6.64119 7.9458C6.54705 8.18811 6.43517 8.552 6.40461 9.22217C6.3716 9.9469 6.3645 10.1644 6.3645 12C6.3645 13.8356 6.3716 14.0527 6.40461 14.7777C6.43517 15.4479 6.54705 15.8119 6.64119 16.0542C6.75555 16.3506 6.93071 16.6199 7.15539 16.8445C7.38007 17.0692 7.6493 17.2444 7.94575 17.3588C8.18805 17.4529 8.55205 17.5647 9.2222 17.5953C9.94693 17.6283 10.1644 17.6354 12 17.6354C13.8355 17.6354 14.053 17.6283 14.7777 17.5953C15.4479 17.5647 15.8119 17.4529 16.0542 17.3588C16.3506 17.2444 16.6198 17.0692 16.8445 16.8445C17.0692 16.6199 17.2444 16.3506 17.3587 16.0542C17.4529 15.8119 17.5647 15.4479 17.5953 14.7777C17.6283 14.053 17.6354 13.8356 17.6354 12C17.6354 10.1644 17.6283 9.94714 17.5953 9.22217C17.5647 8.552 17.4529 8.18811 17.3587 7.9458ZM12 15.5297C11.3018 15.5297 10.6194 15.3228 10.0389 14.9348C9.45846 14.547 9.00604 13.9957 8.73888 13.3507C8.47172 12.7058 8.40182 11.9961 8.53801 11.3113C8.67421 10.6266 9.01039 9.99768 9.50404 9.50403C9.99768 9.01038 10.6266 8.67419 11.3113 8.53796C11.996 8.40186 12.7058 8.47168 13.3507 8.73889C13.9957 9.00598 14.547 9.4585 14.9348 10.0389C15.3227 10.6194 15.5297 11.3019 15.5297 12C15.5297 12.9362 15.1578 13.8339 14.4959 14.4958C13.8339 15.1578 12.9361 15.5297 12 15.5297ZM15.6694 9.1554C15.5063 9.1554 15.3468 9.10693 15.2112 9.01636C15.0755 8.92566 14.9698 8.79688 14.9074 8.64612C14.8449 8.49548 14.8286 8.32959 14.8604 8.16956C14.8922 8.00952 14.9708 7.86255 15.0862 7.74719C15.2015 7.63184 15.3485 7.55334 15.5085 7.52148C15.6685 7.48962 15.8344 7.50598 15.9851 7.56836C16.1358 7.63086 16.2646 7.73657 16.3553 7.87219C16.4459 8.00781 16.4943 8.16736 16.4943 8.33044C16.4943 8.43884 16.473 8.54602 16.4315 8.64612C16.3901 8.74622 16.3293 8.83716 16.2527 8.9137C16.1761 8.99036 16.0852 9.05115 15.9851 9.09253C15.885 9.13403 15.7778 9.1554 15.6694 9.1554ZM12 14.2913C13.2654 14.2913 14.2912 13.2654 14.2912 12C14.2912 10.7346 13.2654 9.70874 12 9.70874C10.7346 9.70874 9.70874 10.7346 9.70874 12C9.70874 13.2654 10.7346 14.2913 12 14.2913Z" fill="white"/>
</symbol><symbol id="icon-telegram" viewBox="0 0 24 24">
<path d="M12 0C9.62663 0 7.30655 0.703788 5.33316 2.02236C3.35977 3.34094 1.8217 5.21508 0.913451 7.4078C0.00519943 9.60051 -0.232441 12.0133 0.230582 14.3411C0.693605 16.6689 1.83649 18.807 3.51472 20.4853C5.19295 22.1635 7.33115 23.3064 9.65892 23.7694C11.9867 24.2324 14.3995 23.9948 16.5922 23.0865C18.7849 22.1783 20.6591 20.6402 21.9776 18.6668C23.2962 16.6934 24 14.3734 24 12C24 8.8174 22.7357 5.76515 20.4853 3.51472C18.2348 1.26428 15.1826 0 12 0V0ZM17.9 8.225L15.928 17.5C15.791 18.159 15.392 18.317 14.84 18.012L11.84 15.797L10.4 17.2C10.233 17.363 10.1 17.5 9.8 17.5C9.411 17.5 9.477 17.353 9.343 16.983L8.323 13.626L5.357 12.7C4.716 12.5 4.712 12.064 5.501 11.747L17.06 7.29C17.588 7.051 18.1 7.417 17.9 8.225Z" fill="white"/>
</symbol><symbol id="icon-user" viewBox="0 0 80 80">
<circle cx="40" cy="40" r="39" stroke="#5C5A6A" stroke-width="2"/>
<path fill-rule="evenodd" clip-rule="evenodd" d="M47 32C47 35.866 43.866 39 40 39C36.134 39 33 35.866 33 32C33 28.134 36.134 25 40 25C43.866 25 47 28.134 47 32ZM52 32C52 38.6274 46.6274 44 40 44C33.3726 44 28 38.6274 28 32C28 25.3726 33.3726 20 40 20C46.6274 20 52 25.3726 52 32ZM29.2678 59.2678C35.2914 53.2441 44.7085 53.2441 50.7322 59.2678C51.7085 60.2441 53.2915 60.2441 54.2678 59.2678C55.2441 58.2915 55.2441 56.7085 54.2678 55.7322C46.2915 47.756 33.7085 47.7559 25.7322 55.7322C24.7559 56.7086 24.7559 58.2915 25.7322 59.2678C26.7086 60.2441 28.2915 60.2441 29.2678 59.2678Z" fill="white"/>
</symbol><symbol id="icon-vk" viewBox="0 0 24 24">
<path d="M12 0C9.62663 0 7.30655 0.703788 5.33316 2.02236C3.35977 3.34094 1.8217 5.21508 0.913451 7.4078C0.00519943 9.60051 -0.232441 12.0133 0.230582 14.3411C0.693605 16.6689 1.83649 18.807 3.51472 20.4853C5.19295 22.1635 7.33115 23.3064 9.65892 23.7694C11.9867 24.2324 14.3995 23.9948 16.5922 23.0865C18.7849 22.1783 20.6591 20.6402 21.9776 18.6668C23.2962 16.6934 24 14.3734 24 12C24 8.8174 22.7357 5.76515 20.4853 3.51472C18.2348 1.26428 15.1826 0 12 0V0ZM19.3761 17.1235H17.6316C16.9711 17.1235 16.7678 16.5984 15.5822 15.3959C14.549 14.3966 14.0917 14.2611 13.8377 14.2611C13.482 14.2611 13.3804 14.3627 13.3804 14.8539V16.4291C13.3804 16.8525 13.2449 17.1066 12.127 17.1066C10.2809 17.1066 8.23148 15.9887 6.79182 13.9054C4.62386 10.8567 4.03106 8.57022 4.03106 8.09598C4.03106 7.84192 4.13268 7.6048 4.62386 7.6048H6.36839C6.80875 7.6048 6.97813 7.80804 7.1475 8.28228C8.0113 10.7721 9.45096 12.9569 10.0438 12.9569C10.2639 12.9569 10.3656 12.8553 10.3656 12.2964V9.72195C10.2978 8.53634 9.67114 8.43472 9.67114 8.01129C9.67287 7.95553 9.6857 7.90067 9.70886 7.84991C9.73203 7.79916 9.76508 7.75353 9.80607 7.71569C9.84707 7.67785 9.89519 7.64855 9.94763 7.62951C10.0001 7.61047 10.0558 7.60207 10.1115 7.6048H12.8553C13.2279 7.6048 13.3634 7.80804 13.3634 8.24841V11.7205C13.3634 12.0932 13.5328 12.2286 13.6344 12.2286C13.8546 12.2286 14.0409 12.0932 14.4474 11.6867C15.7008 10.2809 16.5984 8.11291 16.5984 8.11291C16.6575 7.96114 16.763 7.83192 16.8999 7.7437C17.0368 7.65549 17.198 7.6128 17.3606 7.62173H19.1052C19.6302 7.62173 19.7488 7.89273 19.6302 8.26535C19.41 9.28158 17.2759 12.2964 17.2759 12.2964C17.0896 12.6013 17.0219 12.7368 17.2759 13.0755C17.4622 13.3296 18.072 13.8546 18.4785 14.3289C19.2237 15.1757 19.7996 15.8871 19.952 16.3783C20.1044 16.8694 19.8673 17.1235 19.3761 17.1235Z" fill="white"/>
</symbol></svg>