<svg width="24" height="24" viewBox="0 0 24 24" fill="none" xmlns="http://www.w3.org/2000/svg">
<path opacity="0.72" d="M12 0C9.62663 0 7.30655 0.703788 5.33316 2.02236C3.35977 3.34094 1.8217 5.21508 0.913451 7.4078C0.00519943 9.60051 -0.232441 12.0133 0.230582 14.3411C0.693605 16.6689 1.83649 18.807 3.51472 20.4853C5.19295 22.1635 7.33115 23.3064 9.65892 23.7694C11.9867 24.2324 14.3995 23.9948 16.5922 23.0865C18.7849 22.1783 20.6591 20.6402 21.9776 18.6668C23.2962 16.6934 24 14.3734 24 12C24 8.8174 22.7357 5.76515 20.4853 3.51472C18.2348 1.26428 15.1826 0 12 0V0ZM17.9 8.225L15.928 17.5C15.791 18.159 15.392 18.317 14.84 18.012L11.84 15.797L10.4 17.2C10.233 17.363 10.1 17.5 9.8 17.5C9.411 17.5 9.477 17.353 9.343 16.983L8.323 13.626L5.357 12.7C4.716 12.5 4.712 12.064 5.501 11.747L17.06 7.29C17.588 7.051 18.1 7.417 17.9 8.225Z" fill="white"/>
</svg>
