<svg width="24" height="24" viewBox="0 0 24 24" fill="none" xmlns="http://www.w3.org/2000/svg">
<path fill-rule="evenodd" clip-rule="evenodd" d="M0 12C0 5.37268 5.37269 0 12 0C18.6273 0 24 5.37268 24 12C24 18.6273 18.6273 24 12 24C5.37269 24 0 18.6273 0 12ZM18.513 16.5028C18.683 16.0657 18.7992 15.5658 18.8325 14.8342C18.8661 14.1011 18.874 13.8669 18.874 12C18.874 10.1331 18.8658 9.89734 18.8325 9.16577C18.7992 8.4342 18.683 7.93384 18.513 7.49719C18.3364 7.04053 18.0663 6.62585 17.7201 6.27966C17.3739 5.93347 16.9592 5.66333 16.5025 5.48669C16.0654 5.31677 15.5671 5.20081 14.834 5.16724C14.1008 5.13367 13.8667 5.12573 11.9997 5.12573C10.1328 5.12573 9.89704 5.13391 9.16549 5.16724C8.43394 5.20056 7.93351 5.31677 7.49693 5.48669C7.04028 5.66333 6.62556 5.93347 6.27935 6.27966C5.93314 6.62585 5.66308 7.04053 5.48647 7.49719C5.31648 7.93433 5.20051 8.43262 5.16695 9.16577C5.13339 9.89893 5.12547 10.1331 5.12547 12C5.12547 13.8669 5.13366 14.1027 5.16695 14.8342C5.20024 15.5658 5.31648 16.0662 5.48647 16.5028C5.66308 16.9595 5.93314 17.3741 6.27935 17.7203C6.62556 18.0665 7.04028 18.3367 7.49693 18.5133C7.93406 18.6832 8.43231 18.7992 9.16549 18.8328C9.89868 18.8663 10.1328 18.8743 11.9997 18.8743C13.8667 18.8743 14.1024 18.8661 14.834 18.8328C15.5655 18.7994 16.0659 18.6832 16.5025 18.5133C16.9592 18.3367 17.3739 18.0665 17.7201 17.7203C18.0663 17.3741 18.3364 16.9595 18.513 16.5028ZM17.3587 7.9458C17.2444 7.64929 17.0692 7.38013 16.8445 7.1554C16.6198 6.93066 16.3506 6.75549 16.0542 6.64124C15.8119 6.547 15.4479 6.43518 14.7777 6.40466C14.053 6.37158 13.8355 6.3645 12 6.3645C10.1644 6.3645 9.9472 6.37158 9.2222 6.40466C8.55205 6.43518 8.18805 6.547 7.94575 6.64124C7.6493 6.75549 7.38007 6.93066 7.15539 7.1554C6.93071 7.38013 6.75555 7.64929 6.64119 7.9458C6.54705 8.18811 6.43517 8.552 6.40461 9.22217C6.3716 9.9469 6.3645 10.1644 6.3645 12C6.3645 13.8356 6.3716 14.0527 6.40461 14.7777C6.43517 15.4479 6.54705 15.8119 6.64119 16.0542C6.75555 16.3506 6.93071 16.6199 7.15539 16.8445C7.38007 17.0692 7.6493 17.2444 7.94575 17.3588C8.18805 17.4529 8.55205 17.5647 9.2222 17.5953C9.94693 17.6283 10.1644 17.6354 12 17.6354C13.8355 17.6354 14.053 17.6283 14.7777 17.5953C15.4479 17.5647 15.8119 17.4529 16.0542 17.3588C16.3506 17.2444 16.6198 17.0692 16.8445 16.8445C17.0692 16.6199 17.2444 16.3506 17.3587 16.0542C17.4529 15.8119 17.5647 15.4479 17.5953 14.7777C17.6283 14.053 17.6354 13.8356 17.6354 12C17.6354 10.1644 17.6283 9.94714 17.5953 9.22217C17.5647 8.552 17.4529 8.18811 17.3587 7.9458ZM12 15.5297C11.3018 15.5297 10.6194 15.3228 10.0389 14.9348C9.45846 14.547 9.00604 13.9957 8.73888 13.3507C8.47172 12.7058 8.40182 11.9961 8.53801 11.3113C8.67421 10.6266 9.01039 9.99768 9.50404 9.50403C9.99768 9.01038 10.6266 8.67419 11.3113 8.53796C11.996 8.40186 12.7058 8.47168 13.3507 8.73889C13.9957 9.00598 14.547 9.4585 14.9348 10.0389C15.3227 10.6194 15.5297 11.3019 15.5297 12C15.5297 12.9362 15.1578 13.8339 14.4959 14.4958C13.8339 15.1578 12.9361 15.5297 12 15.5297ZM15.6694 9.1554C15.5063 9.1554 15.3468 9.10693 15.2112 9.01636C15.0755 8.92566 14.9698 8.79688 14.9074 8.64612C14.8449 8.49548 14.8286 8.32959 14.8604 8.16956C14.8922 8.00952 14.9708 7.86255 15.0862 7.74719C15.2015 7.63184 15.3485 7.55334 15.5085 7.52148C15.6685 7.48962 15.8344 7.50598 15.9851 7.56836C16.1358 7.63086 16.2646 7.73657 16.3553 7.87219C16.4459 8.00781 16.4943 8.16736 16.4943 8.33044C16.4943 8.43884 16.473 8.54602 16.4315 8.64612C16.3901 8.74622 16.3293 8.83716 16.2527 8.9137C16.1761 8.99036 16.0852 9.05115 15.9851 9.09253C15.885 9.13403 15.7778 9.1554 15.6694 9.1554ZM12 14.2913C13.2654 14.2913 14.2912 13.2654 14.2912 12C14.2912 10.7346 13.2654 9.70874 12 9.70874C10.7346 9.70874 9.70874 10.7346 9.70874 12C9.70874 13.2654 10.7346 14.2913 12 14.2913Z" fill="white"/>
</svg>
